<?xml version="1.0" encoding="UTF-8"?><svg id="Layer_1" xmlns="http://www.w3.org/2000/svg" viewBox="0 0 56 56"><path d="M53.76,35.97c2.98-4.86,2.98-11.07,0-15.94-.88-1.43-1.52-2.98-1.91-4.61-1.33-5.55-5.72-9.94-11.27-11.27-1.63-.39-3.19-1.03-4.61-1.91-4.86-2.98-11.07-2.98-15.94,0-1.43.88-2.98,1.52-4.61,1.91-5.55,1.33-9.94,5.72-11.27,11.27-.39,1.63-1.03,3.19-1.91,4.61-2.98,4.86-2.98,11.07,0,15.94.88,1.43,1.52,2.98,1.91,4.61,1.33,5.55,5.72,9.94,11.27,11.27,1.63.39,3.19,1.03,4.61,1.91,4.86,2.98,11.07,2.98,15.94,0,1.43-.88,2.98-1.52,4.61-1.91,5.55-1.33,9.94-5.72,11.27-11.27.39-1.63,1.03-3.19,1.91-4.61Z"/></svg>